# xmcd
#
# Track frame offsets:
#	150
#	12697
#	24058
#	63029
#	68281
#	84664
#	109992
#	126670
#	152096
#	172395
#
# Disc length: 2557 seconds
#
# Revision: 0
# Processed by: cddbd v1.5.2PL0 Copyright (c) Steve Scherf et al.
# Submitted via: EasyCDDAExtractor 9.0.0.1
#
DISCID=8109fb0a
DTITLE=Ozzy Osbourne - Le Transbordeur Lyon 11-04-89 Disc 2
DYEAR=1989
DGENRE=Hard Rock
TTITLE0=War Pigs
TTITLE1=Tattooed Dancer
TTITLE2=Drum Solo
TTITLE3=Tattooed Dancer Reprise
TTITLE4=Miracle Man
TTITLE5=Suicide Solution
TTITLE6=Iron Man
TTITLE7=Crazy Train
TTITLE8=Bark At The Moon
TTITLE9=Paranoid
EXTD=
EXTT0=
EXTT1=
EXTT2=
EXTT3=
EXTT4=
EXTT5=
EXTT6=
EXTT7=
EXTT8=
EXTT9=
PLAYORDER=
